<?xml version="1.0" encoding="UTF-8" standalone="no"?>
<svg width="22px" height="22px" viewBox="0 0 22 22" version="1.1" xmlns="http://www.w3.org/2000/svg" xmlns:xlink="http://www.w3.org/1999/xlink">
    <!-- Generator: Sketch 3.8.3 (29802) - http://www.bohemiancoding.com/sketch -->
    <title>roomlist-refresh</title>
    <desc>roomlist-refresh</desc>
    <defs></defs>
    <g id="v7" stroke="none" stroke-width="1" fill="none" fill-rule="evenodd">
        <g id="roomlist-refresh" fill="#FFFFFF">
            <g id="refresh" transform="translate(11.000000, 9.500000) rotate(-360.000000) translate(-11.000000, -9.500000) translate(3.000000, 0.000000)">
                <path d="M13,4 L8,8 L8,-4.54747351e-13 L13,4 Z M16,11 L14,11 C14,14.3137085 11.3137085,17 8,17 C4.6862915,17 2,14.3137085 2,11 C2,7.6862915 4.6862915,5 8,5 L8,3 C3.581722,3 -2.22044605e-15,6.581722 -2.22044605e-15,11 C-2.22044605e-15,15.418278 3.581722,19 8,19 C12.418278,19 16,15.418278 16,11 L16,11 Z" id="shape"></path>
            </g>
        </g>
    </g>
</svg>
