<svg version="1.1" xmlns="http://www.w3.org/2000/svg" width="14px" height="14px" viewBox="0 0 14 14">
    <defs>
        <style>
            .star-filled { fill: #fff; }
        </style>
    </defs>
    <g>
        <path
            class="star-filled"
            d="M11.0452466,14.1148882 C10.9669886,14.1156878 10.8898337,14.0963991 10.8211588,14.0588662 L7.00232975,11.9487064 L3.19283773,14.0588662 C3.03581099,14.1482558 2.84130181,14.1390072 2.69346497,14.0351219 C2.54562813,13.9312365 2.47101242,13.7513703 2.50190045,13.5733427 L3.23952268,9.06357649 L0.130304939,5.87966282 C0.0100510882,5.75457169 -0.0309032432,5.57310543 0.0239682237,5.40849103 C0.0788396906,5.24387663 0.220482908,5.12327623 0.391740665,5.09535564 L4.66808219,4.44176632 L6.53548024,0.352164601 C6.59502498,0.143716311 6.78554353,0 7.00232975,0 C7.21911596,0 7.40963452,0.143716311 7.46917926,0.352164601 L9.33657731,4.43242933 L13.6035819,5.08601865 C13.7748397,5.11393924 13.9164829,5.23453964 13.9713543,5.39915404 C14.0262258,5.56376844 13.9852715,5.7452347 13.8650176,5.87032582 L10.7651369,9.06357649 L11.5027591,13.5640057 C11.5276406,13.6999735 11.49099,13.839977 11.4026776,13.9463124 C11.3143651,14.0526478 11.1834712,14.1143815 11.0452466,14.1148882 L11.0452466,14.1148882 L11.0452466,14.1148882 Z"/>
    </g>
</svg>
