<svg width="14px" height="14px" viewBox="0 0 14 14" version="1.1" xmlns="http://www.w3.org/2000/svg">
    <defs>
        <style>
            .star-outline { fill: #fff; }
        </style>
    </defs>
    <g>
        <path
            class="star-outline"
            d="M11.0493803,14.1196057 C10.9710961,14.1204055 10.8939155,14.1011104 10.8252176,14.063565 L7.0051123,11.9526999 L3.19434709,14.063565 C3.03726786,14.1529845 2.84269368,14.1437328 2.69480743,14.0398127 C2.54692118,13.9358926 2.47228052,13.7559663 2.50317888,13.5778792 L3.24104764,9.0666057 L0.130790735,5.8816279 C0.0104966934,5.75649497 -0.0304713256,5.57496807 0.0244184803,5.41029865 C0.0793082863,5.24562923 0.220998843,5.12498852 0.392313838,5.0970586 L4.6700846,4.44325084 L6.53810676,0.352282297 C6.5976714,0.143764348 6.78825363,-1.29620076e-17 7.0051123,0 C7.22197097,1.29620076e-17 7.4125532,0.143764348 7.47211784,0.352282297 L9.34014001,4.43391073 L13.6085707,5.08771848 C13.7798856,5.11564841 13.9215762,5.23628912 13.976466,5.40095854 C14.0313558,5.56562796 13.9903878,5.74715486 13.8700938,5.87228779 L10.769177,9.0666057 L11.5070457,13.5685391 C11.5319356,13.7045523 11.4952727,13.8446026 11.4069307,13.9509736 C11.3185888,14.0573445 11.1876511,14.1190988 11.0493803,14.1196057 L11.0493803,14.1196057 Z M7.0051123,10.943968 C7.08334776,10.9435765 7.16042787,10.9628466 7.22927496,11.0000086 L10.432933,12.7746297 L9.81648566,8.99188481 C9.79358315,8.84482166 9.84215094,8.69564917 9.94724721,8.59026004 L12.5811585,5.8816279 L8.95719546,5.33056137 C8.8025954,5.30823068 8.66939681,5.21008435 8.60227125,5.06903826 L7.0051123,1.65989781 L5.40795335,5.06903826 C5.34082779,5.21008435 5.20762921,5.30823068 5.05302914,5.33056137 L1.43840625,5.8816279 L4.0723175,8.59026004 C4.17741378,8.69564917 4.22598157,8.84482166 4.20307905,8.99188481 L3.57729163,12.7746297 L6.78094964,11.0000086 C6.84979673,10.9628466 6.92687684,10.9435765 7.0051123,10.943968 L7.0051123,10.943968 Z"/>
    </g>
</svg>
